<mxfile host="Electron" modified="2024-03-26T15:18:47.102Z" agent="Mozilla/5.0 (X11; Linux x86_64) AppleWebKit/537.36 (KHTML, like Gecko) draw.io/24.1.0 Chrome/120.0.6099.109 Electron/28.1.0 Safari/537.36" etag="5BjVW-om5R-aFSMNhGiB" version="24.1.0" type="device">
  <diagram id="Aqkx3YZSyzbMtWx4DzGg" name="Page-1">
    <mxGraphModel dx="830" dy="477" grid="1" gridSize="5" guides="1" tooltips="1" connect="1" arrows="1" fold="1" page="1" pageScale="1" pageWidth="827" pageHeight="1169" math="0" shadow="0">
      <root>
        <mxCell id="0" />
        <mxCell id="1" parent="0" />
        <mxCell id="2" value="-0.1" style="whiteSpace=wrap;html=1;aspect=fixed;fillColor=#d5e8d4;strokeColor=#82b366;fontSize=12;fontFamily=Times New Roman;" parent="1" vertex="1">
          <mxGeometry x="20" y="60" width="30" height="30" as="geometry" />
        </mxCell>
        <mxCell id="4" value="3.1" style="whiteSpace=wrap;html=1;aspect=fixed;fillColor=#d5e8d4;strokeColor=#82b366;fontSize=12;fontFamily=Times New Roman;" parent="1" vertex="1">
          <mxGeometry x="20" y="150" width="30" height="30" as="geometry" />
        </mxCell>
        <mxCell id="5" value="0" style="whiteSpace=wrap;html=1;aspect=fixed;fillColor=#d5e8d4;strokeColor=#82b366;fontSize=12;fontFamily=Times New Roman;" parent="1" vertex="1">
          <mxGeometry x="20" y="120" width="30" height="30" as="geometry" />
        </mxCell>
        <mxCell id="6" value="-3.5" style="whiteSpace=wrap;html=1;aspect=fixed;fillColor=#d5e8d4;strokeColor=#82b366;fontSize=12;fontFamily=Times New Roman;" parent="1" vertex="1">
          <mxGeometry x="20" y="90" width="30" height="30" as="geometry" />
        </mxCell>
        <mxCell id="7" value="4.9" style="whiteSpace=wrap;html=1;aspect=fixed;fillColor=#d5e8d4;strokeColor=#82b366;fontSize=12;fontFamily=Times New Roman;" parent="1" vertex="1">
          <mxGeometry x="20" y="30" width="30" height="30" as="geometry" />
        </mxCell>
        <mxCell id="9" value="0.28" style="whiteSpace=wrap;html=1;aspect=fixed;fillColor=#d5e8d4;strokeColor=#82b366;fontSize=12;fontFamily=Times New Roman;" parent="1" vertex="1">
          <mxGeometry x="20" y="180" width="30" height="30" as="geometry" />
        </mxCell>
        <mxCell id="12" value="7" style="whiteSpace=wrap;html=1;aspect=fixed;fillColor=#d5e8d4;strokeColor=#82b366;fontSize=12;fontFamily=Times New Roman;" parent="1" vertex="1">
          <mxGeometry x="20" y="210" width="30" height="30" as="geometry" />
        </mxCell>
        <mxCell id="13" value="-0.2" style="whiteSpace=wrap;html=1;aspect=fixed;fillColor=#d5e8d4;strokeColor=#82b366;fontSize=12;fontFamily=Times New Roman;" parent="1" vertex="1">
          <mxGeometry x="20" width="30" height="30" as="geometry" />
        </mxCell>
        <mxCell id="15" value="0" style="text;html=1;strokeColor=none;fillColor=none;align=center;verticalAlign=middle;whiteSpace=wrap;rounded=0;fontSize=12;fontFamily=Times New Roman;" parent="1" vertex="1">
          <mxGeometry width="20" height="30" as="geometry" />
        </mxCell>
        <mxCell id="16" value="1" style="text;html=1;strokeColor=none;fillColor=none;align=center;verticalAlign=middle;whiteSpace=wrap;rounded=0;fontSize=12;fontFamily=Times New Roman;" parent="1" vertex="1">
          <mxGeometry y="30" width="20" height="30" as="geometry" />
        </mxCell>
        <mxCell id="17" value="2" style="text;html=1;strokeColor=none;fillColor=none;align=center;verticalAlign=middle;whiteSpace=wrap;rounded=0;fontSize=12;fontFamily=Times New Roman;" parent="1" vertex="1">
          <mxGeometry y="60" width="20" height="30" as="geometry" />
        </mxCell>
        <mxCell id="18" value="3" style="text;html=1;strokeColor=none;fillColor=none;align=center;verticalAlign=middle;whiteSpace=wrap;rounded=0;fontSize=12;fontFamily=Times New Roman;" parent="1" vertex="1">
          <mxGeometry y="90" width="20" height="30" as="geometry" />
        </mxCell>
        <mxCell id="19" value="4" style="text;html=1;strokeColor=none;fillColor=none;align=center;verticalAlign=middle;whiteSpace=wrap;rounded=0;fontSize=12;fontFamily=Times New Roman;" parent="1" vertex="1">
          <mxGeometry y="120" width="20" height="30" as="geometry" />
        </mxCell>
        <mxCell id="20" value="5" style="text;html=1;strokeColor=none;fillColor=none;align=center;verticalAlign=middle;whiteSpace=wrap;rounded=0;fontSize=12;fontFamily=Times New Roman;" parent="1" vertex="1">
          <mxGeometry y="150" width="20" height="30" as="geometry" />
        </mxCell>
        <mxCell id="21" value="6" style="text;html=1;strokeColor=none;fillColor=none;align=center;verticalAlign=middle;whiteSpace=wrap;rounded=0;fontSize=12;fontFamily=Times New Roman;" parent="1" vertex="1">
          <mxGeometry y="180" width="20" height="30" as="geometry" />
        </mxCell>
        <mxCell id="22" value="7" style="text;html=1;strokeColor=none;fillColor=none;align=center;verticalAlign=middle;whiteSpace=wrap;rounded=0;fontSize=12;fontFamily=Times New Roman;" parent="1" vertex="1">
          <mxGeometry y="210" width="20" height="30" as="geometry" />
        </mxCell>
        <mxCell id="80" value="-3.5" style="whiteSpace=wrap;html=1;aspect=fixed;fillColor=#d5e8d4;strokeColor=#82b366;fontSize=12;fontFamily=Times New Roman;" parent="1" vertex="1">
          <mxGeometry x="242.5" y="40" width="30" height="30" as="geometry" />
        </mxCell>
        <mxCell id="81" value="4.9" style="whiteSpace=wrap;html=1;aspect=fixed;fillColor=#d5e8d4;strokeColor=#82b366;fontSize=12;fontFamily=Times New Roman;" parent="1" vertex="1">
          <mxGeometry x="242.5" y="10" width="30" height="30" as="geometry" />
        </mxCell>
        <mxCell id="82" value="7" style="whiteSpace=wrap;html=1;aspect=fixed;fillColor=#d5e8d4;strokeColor=#82b366;fontSize=12;fontFamily=Times New Roman;" parent="1" vertex="1">
          <mxGeometry x="242.5" y="70" width="30" height="30" as="geometry" />
        </mxCell>
        <mxCell id="83" value="1" style="whiteSpace=wrap;html=1;aspect=fixed;fillColor=#d5e8d4;strokeColor=#82b366;fontSize=12;fontFamily=Times New Roman;" parent="1" vertex="1">
          <mxGeometry x="242.5" y="140" width="30" height="30" as="geometry" />
        </mxCell>
        <mxCell id="84" value="3" style="whiteSpace=wrap;html=1;aspect=fixed;fillColor=#d5e8d4;strokeColor=#82b366;fontSize=12;fontFamily=Times New Roman;" parent="1" vertex="1">
          <mxGeometry x="242.5" y="170" width="30" height="30" as="geometry" />
        </mxCell>
        <mxCell id="85" value="7" style="whiteSpace=wrap;html=1;aspect=fixed;fillColor=#d5e8d4;strokeColor=#82b366;fontSize=12;fontFamily=Times New Roman;" parent="1" vertex="1">
          <mxGeometry x="242.5" y="200" width="30" height="30" as="geometry" />
        </mxCell>
        <mxCell id="86" value="" style="whiteSpace=wrap;html=1;aspect=fixed;fillColor=none;strokeColor=#82b366;fontSize=12;fontFamily=Times New Roman;" parent="1" vertex="1">
          <mxGeometry x="140" y="60" width="30" height="30" as="geometry" />
        </mxCell>
        <mxCell id="87" value="" style="whiteSpace=wrap;html=1;aspect=fixed;fillColor=none;strokeColor=#82b366;fontSize=12;fontFamily=Times New Roman;" parent="1" vertex="1">
          <mxGeometry x="140" y="150" width="30" height="30" as="geometry" />
        </mxCell>
        <mxCell id="88" value="" style="whiteSpace=wrap;html=1;aspect=fixed;fillColor=none;strokeColor=#82b366;fontSize=12;fontFamily=Times New Roman;" parent="1" vertex="1">
          <mxGeometry x="140" y="120" width="30" height="30" as="geometry" />
        </mxCell>
        <mxCell id="89" value="-3.5" style="whiteSpace=wrap;html=1;aspect=fixed;fillColor=#d5e8d4;strokeColor=#82b366;fontSize=12;fontFamily=Times New Roman;" parent="1" vertex="1">
          <mxGeometry x="140" y="90" width="30" height="30" as="geometry" />
        </mxCell>
        <mxCell id="90" value="4.9" style="whiteSpace=wrap;html=1;aspect=fixed;fillColor=#d5e8d4;strokeColor=#82b366;fontSize=12;fontFamily=Times New Roman;" parent="1" vertex="1">
          <mxGeometry x="140" y="30" width="30" height="30" as="geometry" />
        </mxCell>
        <mxCell id="91" value="" style="whiteSpace=wrap;html=1;aspect=fixed;fillColor=none;strokeColor=#82b366;fontSize=12;fontFamily=Times New Roman;" parent="1" vertex="1">
          <mxGeometry x="140" y="180" width="30" height="30" as="geometry" />
        </mxCell>
        <mxCell id="92" value="7" style="whiteSpace=wrap;html=1;aspect=fixed;fillColor=#d5e8d4;strokeColor=#82b366;fontSize=12;fontFamily=Times New Roman;" parent="1" vertex="1">
          <mxGeometry x="140" y="210" width="30" height="30" as="geometry" />
        </mxCell>
        <mxCell id="93" value="" style="whiteSpace=wrap;html=1;aspect=fixed;fillColor=none;strokeColor=#82b366;fontSize=12;fontFamily=Times New Roman;" parent="1" vertex="1">
          <mxGeometry x="140" width="30" height="30" as="geometry" />
        </mxCell>
        <mxCell id="94" value="0" style="text;html=1;strokeColor=none;fillColor=none;align=center;verticalAlign=middle;whiteSpace=wrap;rounded=0;fontSize=12;fontFamily=Times New Roman;" parent="1" vertex="1">
          <mxGeometry x="120" width="20" height="30" as="geometry" />
        </mxCell>
        <mxCell id="95" value="1" style="text;html=1;strokeColor=none;fillColor=none;align=center;verticalAlign=middle;whiteSpace=wrap;rounded=0;fontSize=12;fontFamily=Times New Roman;" parent="1" vertex="1">
          <mxGeometry x="120" y="30" width="20" height="30" as="geometry" />
        </mxCell>
        <mxCell id="96" value="2" style="text;html=1;strokeColor=none;fillColor=none;align=center;verticalAlign=middle;whiteSpace=wrap;rounded=0;fontSize=12;fontFamily=Times New Roman;" parent="1" vertex="1">
          <mxGeometry x="120" y="60" width="20" height="30" as="geometry" />
        </mxCell>
        <mxCell id="97" value="3" style="text;html=1;strokeColor=none;fillColor=none;align=center;verticalAlign=middle;whiteSpace=wrap;rounded=0;fontSize=12;fontFamily=Times New Roman;" parent="1" vertex="1">
          <mxGeometry x="120" y="90" width="20" height="30" as="geometry" />
        </mxCell>
        <mxCell id="98" value="4" style="text;html=1;strokeColor=none;fillColor=none;align=center;verticalAlign=middle;whiteSpace=wrap;rounded=0;fontSize=12;fontFamily=Times New Roman;" parent="1" vertex="1">
          <mxGeometry x="120" y="120" width="20" height="30" as="geometry" />
        </mxCell>
        <mxCell id="99" value="5" style="text;html=1;strokeColor=none;fillColor=none;align=center;verticalAlign=middle;whiteSpace=wrap;rounded=0;fontSize=12;fontFamily=Times New Roman;" parent="1" vertex="1">
          <mxGeometry x="120" y="150" width="20" height="30" as="geometry" />
        </mxCell>
        <mxCell id="100" value="6" style="text;html=1;strokeColor=none;fillColor=none;align=center;verticalAlign=middle;whiteSpace=wrap;rounded=0;fontSize=12;fontFamily=Times New Roman;" parent="1" vertex="1">
          <mxGeometry x="120" y="180" width="20" height="30" as="geometry" />
        </mxCell>
        <mxCell id="101" value="7" style="text;html=1;strokeColor=none;fillColor=none;align=center;verticalAlign=middle;whiteSpace=wrap;rounded=0;fontSize=12;fontFamily=Times New Roman;" parent="1" vertex="1">
          <mxGeometry x="120" y="210" width="20" height="30" as="geometry" />
        </mxCell>
        <mxCell id="102" value="&lt;font data-font-src=&quot;https://fonts.googleapis.com/css?family=FangSong&quot; style=&quot;font-size: 12px;&quot;&gt;原始梯度&lt;/font&gt;" style="text;html=1;strokeColor=none;fillColor=none;align=center;verticalAlign=middle;whiteSpace=wrap;rounded=0;fontFamily=宋体;fontSize=12;" parent="1" vertex="1">
          <mxGeometry x="5" y="240" width="60" height="20" as="geometry" />
        </mxCell>
        <mxCell id="103" value="&lt;font data-font-src=&quot;https://fonts.googleapis.com/css?family=FangSong&quot; style=&quot;font-size: 12px;&quot;&gt;&lt;font face=&quot;Times New Roman&quot; style=&quot;font-size: 12px;&quot;&gt;Top-K&lt;/font&gt;梯度&lt;/font&gt;" style="text;html=1;strokeColor=none;fillColor=none;align=center;verticalAlign=middle;whiteSpace=wrap;rounded=0;fontFamily=宋体;fontSize=12;" parent="1" vertex="1">
          <mxGeometry x="125" y="240" width="60" height="20" as="geometry" />
        </mxCell>
        <mxCell id="104" value="&lt;font data-font-src=&quot;https://fonts.googleapis.com/css?family=FangSong&quot; style=&quot;font-size: 12px;&quot;&gt;&lt;font face=&quot;Times New Roman&quot; style=&quot;font-size: 12px;&quot;&gt;Top-K&lt;/font&gt;梯度的值&lt;/font&gt;" style="text;html=1;strokeColor=none;fillColor=none;align=center;verticalAlign=middle;whiteSpace=wrap;rounded=0;fontFamily=宋体;fontSize=12;" parent="1" vertex="1">
          <mxGeometry x="215" y="100" width="85" height="20" as="geometry" />
        </mxCell>
        <mxCell id="105" value="&lt;font data-font-src=&quot;https://fonts.googleapis.com/css?family=FangSong&quot; style=&quot;font-size: 12px;&quot;&gt;&lt;font face=&quot;Times New Roman&quot; style=&quot;font-size: 12px;&quot;&gt;Top-K&lt;/font&gt;梯度的索引&lt;/font&gt;" style="text;html=1;strokeColor=none;fillColor=none;align=center;verticalAlign=middle;whiteSpace=wrap;rounded=0;fontFamily=宋体;fontSize=12;" parent="1" vertex="1">
          <mxGeometry x="210" y="230" width="95" height="20" as="geometry" />
        </mxCell>
        <mxCell id="106" value="" style="shape=flexArrow;endArrow=classic;html=1;fontSize=12;" parent="1" edge="1">
          <mxGeometry width="50" height="50" relative="1" as="geometry">
            <mxPoint x="65" y="120" as="sourcePoint" />
            <mxPoint x="115" y="120" as="targetPoint" />
          </mxGeometry>
        </mxCell>
        <mxCell id="111" value="" style="endArrow=classic;html=1;strokeWidth=4;fontSize=12;" parent="1" edge="1">
          <mxGeometry width="50" height="50" relative="1" as="geometry">
            <mxPoint x="183" y="90" as="sourcePoint" />
            <mxPoint x="233" y="70" as="targetPoint" />
          </mxGeometry>
        </mxCell>
        <mxCell id="113" value="" style="endArrow=classic;html=1;exitX=1;exitY=0;exitDx=0;exitDy=0;strokeWidth=4;fontSize=12;" parent="1" edge="1">
          <mxGeometry width="50" height="50" relative="1" as="geometry">
            <mxPoint x="183" y="150" as="sourcePoint" />
            <mxPoint x="233" y="170" as="targetPoint" />
          </mxGeometry>
        </mxCell>
      </root>
    </mxGraphModel>
  </diagram>
</mxfile>
